<?xml version="1.0" encoding="UTF-8"?>
<svg version="1.1" xmlns="http://www.w3.org/2000/svg" width="592" height="630">
<path d="M0 0 C12.21 0 24.42 0 37 0 C37.33 0.66 37.66 1.32 38 2 C40.8159849 2.46898963 40.8159849 2.46898963 44.0625 2.625 C45.71958984 2.73714844 45.71958984 2.73714844 47.41015625 2.8515625 C48.26480469 2.90054688 49.11945313 2.94953125 50 3 C50 3.66 50 4.32 50 5 C51.98 5.33 53.96 5.66 56 6 C56 6.99 56 7.98 56 9 C57.134375 9.12375 58.26875 9.2475 59.4375 9.375 C60.613125 9.58125 61.78875 9.7875 63 10 C63.33 10.66 63.66 11.32 64 12 C66.02463255 12.65213292 66.02463255 12.65213292 68 13 C68 13.99 68 14.98 68 16 C69.65 16 71.3 16 73 16 C73 16.99 73 17.98 73 19 C73.99 19 74.98 19 76 19 C76 19.99 76 20.98 76 22 C77.65 22.33 79.3 22.66 81 23 C81 23.99 81 24.98 81 26 C81.99 26 82.98 26 84 26 C84 26.99 84 27.98 84 29 C84.598125 29.061875 85.19625 29.12375 85.8125 29.1875 C88.86915486 30.32282895 89.46634026 32.21152775 91 35 C91.66 35.33 92.32 35.66 93 36 C93 36.99 93 37.98 93 39 C93.99 39 94.98 39 96 39 C96.45375 39.969375 96.9075 40.93875 97.375 41.9375 C98.65786221 45.07079582 98.65786221 45.07079582 101 46 C101 46.99 101 47.98 101 49 C101.66 49 102.32 49 103 49 C103.45375 49.969375 103.9075 50.93875 104.375 51.9375 C105.65786221 55.07079582 105.65786221 55.07079582 108 56 C108.33333333 57.66666667 108.66666667 59.33333333 109 61 C109.66 61.33 110.32 61.66 111 62 C111 63.32 111 64.64 111 66 C111.66 66 112.32 66 113 66 C113.12375 66.78375 113.2475 67.5675 113.375 68.375 C113.79117993 71.14057822 113.79117993 71.14057822 116 73 C116 73.99 116 74.98 116 76 C116.66 76 117.32 76 118 76 C118 78.31 118 80.62 118 83 C118.66 83 119.32 83 120 83 C120.66 84.98 121.32 86.96 122 89 C122.33 89 122.66 89 123 89 C123 92.3 123 95.6 123 99 C123.66 99 124.32 99 125 99 C125.99 102.465 125.99 102.465 127 106 C127.33 106 127.66 106 128 106 C128 112.27 128 118.54 128 125 C128.66 125 129.32 125 130 125 C130 141.17 130 157.34 130 174 C129.34 174 128.68 174 128 174 C128.02320313 175.27617187 128.04640625 176.55234375 128.0703125 177.8671875 C128.08906829 179.5364525 128.10726869 181.2057238 128.125 182.875 C128.14175781 183.71675781 128.15851563 184.55851563 128.17578125 185.42578125 C128.18222656 186.23144531 128.18867188 187.03710938 128.1953125 187.8671875 C128.20578613 188.61081543 128.21625977 189.35444336 128.22705078 190.12060547 C128 192 128 192 126 194 C124.069718 198.54184 123.64285177 202.8625874 123.34375 207.73046875 C122.84023843 211.05478943 120.84696267 213.229556 119 216 C118.855625 217.134375 118.71125 218.26875 118.5625 219.4375 C118.00401458 222.97457432 117.49622693 224.50377307 115 227 C114.34 227 113.68 227 113 227 C113 228.98 113 230.96 113 233 C112.34 233 111.68 233 111 233 C111 234.32 111 235.64 111 237 C110.01 237 109.02 237 108 237 C108.0825 237.7425 108.165 238.485 108.25 239.25 C107.92211671 242.85671624 106.55720353 243.51585943 104 246 C102.98034573 248.32481174 101.97940398 250.65794699 101 253 C99.4375 254.9375 99.4375 254.9375 98 256 C97.34 256 96.68 256 96 256 C95.9175 256.61875 95.835 257.2375 95.75 257.875 C95 260 95 260 91 262 C91 277.18 91 292.36 91 308 C91.99 308.33 92.98 308.66 94 309 C96 311 96 311 96 314 C96.66 314 97.32 314 98 314 C98 315.32 98 316.64 98 318 C98.99 318 99.98 318 101 318 C101 318.99 101 319.98 101 321 C101.66 321 102.32 321 103 321 C103.33 321.99 103.66 322.98 104 324 C104.66 324.33 105.32 324.66 106 325 C106 325.66 106 326.32 106 327 C106.66 327 107.32 327 108 327 C108 328.32 108 329.64 108 331 C108.99 331 109.98 331 111 331 C111 331.99 111 332.98 111 334 C111.66 334 112.32 334 113 334 C113.33 334.99 113.66 335.98 114 337 C114.66 337.33 115.32 337.66 116 338 C116 338.99 116 339.98 116 341 C116.66 341 117.32 341 118 341 C118 341.99 118 342.98 118 344 C118.99 344 119.98 344 121 344 C121 344.99 121 345.98 121 347 C121.66 347 122.32 347 123 347 C123.02469575 351.09341499 123.04285793 355.18680121 123.05493164 359.28027344 C123.0599643 360.67318477 123.06679098 362.0660908 123.07543945 363.45898438 C123.08755152 365.45961246 123.09270412 367.46027888 123.09765625 369.4609375 C123.10289307 370.66540527 123.10812988 371.86987305 123.11352539 373.11083984 C123 376 123 376 122 378 C119.91846065 378.13536022 117.83438794 378.23215465 115.75 378.3125 C114.58984375 378.37050781 113.4296875 378.42851563 112.234375 378.48828125 C109 378 109 378 106.59375 375.9375 C104.6037144 372.26959125 104.59492767 369.83568494 104.75 365.6875 C104.78609375 364.43324219 104.8221875 363.17898438 104.859375 361.88671875 C104.90578125 360.93410156 104.9521875 359.98148437 105 359 C104.01 358.67 103.02 358.34 102 358 C102 357.01 102 356.02 102 355 C101.34 355 100.68 355 100 355 C98.7109375 353.5390625 98.7109375 353.5390625 97.375 351.625 C96.92898438 350.99851562 96.48296875 350.37203125 96.0234375 349.7265625 C95 348 95 348 95 346 C94.34 346 93.68 346 93 346 C92.67 345.01 92.34 344.02 92 343 C91.34 342.67 90.68 342.34 90 342 C90 341.01 90 340.02 90 339 C89.34 339 88.68 339 88 339 C88 338.01 88 337.02 88 336 C87.01 335.67 86.02 335.34 85 335 C85 334.01 85 333.02 85 332 C84.34 332 83.68 332 83 332 C83 331.01 83 330.02 83 329 C82.01 328.67 81.02 328.34 80 328 C78.8125 325.4375 78.8125 325.4375 78 323 C77.34 323 76.68 323 76 323 C72.97771069 317.95936523 72.59060906 314.22705305 72.70703125 308.5390625 C72.71127609 307.74849457 72.71552094 306.95792664 72.71989441 306.1434021 C72.73658699 303.6369106 72.77422017 301.13124539 72.8125 298.625 C72.82755908 296.91798042 72.84124534 295.21094815 72.85351562 293.50390625 C72.88645944 289.33562275 72.93817507 285.16795111 73 281 C72.67 281.33 72.34 281.66 72 282 C71.319375 282.495 70.63875 282.99 69.9375 283.5 C69.298125 283.995 68.65875 284.49 68 285 C68 285.33 68 285.66 68 286 C66.35 286 64.7 286 63 286 C63 286.99 63 287.98 63 289 C62.01 289 61.02 289 60 289 C59.77526983 293.92524023 59.61319779 298.84741793 59.50561523 303.77661133 C59.46071985 305.4480392 59.3995741 307.11912106 59.32104492 308.78930664 C58.75158388 321.0837715 58.75158388 321.0837715 64.53515625 331.54296875 C66.02314641 333.02893738 67.5113429 334.51469952 69 336 C69 336.66 69 337.32 69 338 C69.66 338 70.32 338 71 338 C74 342.38461538 74 342.38461538 74 345 C74.66 345 75.32 345 76 345 C77.60229492 346.10327148 77.60229492 346.10327148 79 348 C79.37231445 350.87915039 79.37231445 350.87915039 79.36328125 354.34765625 C79.36231445 356.21454102 79.36231445 356.21454102 79.36132812 358.11914062 C79.3371582 360.07110352 79.3371582 360.07110352 79.3125 362.0625 C79.31572266 363.36767578 79.31894531 364.67285156 79.32226562 366.01757812 C79.26686327 375.73313673 79.26686327 375.73313673 77 378 C73.8125 378.30078125 73.8125 378.30078125 70 378.3125 C68.741875 378.32925781 67.48375 378.34601563 66.1875 378.36328125 C64.6096875 378.18345703 64.6096875 378.18345703 63 378 C60.54608431 374.31912647 60.77197241 371.55644412 60.875 367.3125 C60.88402344 366.61060547 60.89304687 365.90871094 60.90234375 365.18554688 C60.92586296 363.45688475 60.96173287 361.72839855 61 360 C60.34 360 59.68 360 59 360 C57.98133771 358.34467377 56.98189187 356.67739862 56 355 C55.34 354.67 54.68 354.34 54 354 C54 353.01 54 352.02 54 351 C53.34 351 52.68 351 52 351 C50.55473264 349.26451831 49.1912778 347.46024037 47.875 345.625 C47.15054688 344.62726563 46.42609375 343.62953125 45.6796875 342.6015625 C44 340 44 340 44 338 C43.34 338 42.68 338 42 338 C42 324.14 42 310.28 42 296 C40.35 296.33 38.7 296.66 37 297 C37.33 297.66 37.66 298.32 38 299 C34.37 299 30.74 299 27 299 C27.33 299.66 27.66 300.32 28 301 C28.10242365 303.28646804 28.13844961 305.57599528 28.14526367 307.86474609 C28.14862228 308.57062363 28.1519809 309.27650116 28.15544128 310.00376892 C28.16496142 312.34367622 28.166895 314.68351202 28.16796875 317.0234375 C28.17118087 318.64767486 28.17454491 320.27191193 28.17805481 321.89614868 C28.18404893 325.30414501 28.18589445 328.71211596 28.18530273 332.12011719 C28.18520116 336.48716008 28.1988473 340.85404021 28.21607494 345.22104454 C28.22719436 348.57706448 28.22922195 351.93304509 28.22869301 355.28908157 C28.22987345 356.89902939 28.2342988 358.50897822 28.24202538 360.11890793 C28.25182303 362.3715427 28.24894811 364.62382438 28.24291992 366.87646484 C28.24434494 368.15838715 28.24576996 369.44030945 28.24723816 370.76107788 C28.01606668 373.78951989 27.60404214 375.46762105 26 378 C23.70858714 378.05384521 21.41681812 378.09272087 19.125 378.125 C17.84882813 378.14820313 16.57265625 378.17140625 15.2578125 378.1953125 C12 378 12 378 10 376 C9.81226735 373.53050928 9.74803697 371.17420017 9.77294922 368.70458984 C9.77265717 367.95327286 9.77236511 367.20195587 9.77206421 366.4278717 C9.77346013 363.93877708 9.78903342 361.44997997 9.8046875 358.9609375 C9.8084167 357.23743859 9.81126411 355.51393757 9.81326294 353.79043579 C9.8209067 349.24969653 9.84056152 344.7090848 9.8626709 340.168396 C9.88311336 335.53676072 9.89226123 330.90510487 9.90234375 326.2734375 C9.92380675 317.18223557 9.95795161 308.09112838 10 299 C6.7 299 3.4 299 0 299 C0.33 298.01 0.66 297.02 1 296 C-0.65 296 -2.3 296 -4 296 C-3.9685791 297.83159668 -3.9685791 297.83159668 -3.93652344 299.70019531 C-3.86409841 304.23246524 -3.81819112 308.76468407 -3.78027344 313.29736328 C-3.76016368 315.25871381 -3.73287182 317.22000444 -3.69824219 319.18115234 C-3.64969579 322.00112695 -3.62702514 324.82030865 -3.609375 327.640625 C-3.58872986 328.51680481 -3.56808472 329.39298462 -3.54681396 330.29571533 C-3.54455977 336.41794958 -3.54455977 336.41794958 -5.93383789 339.47143555 C-6.61567139 339.97586182 -7.29750488 340.48028809 -8 341 C-8.92771199 342.1627657 -9.82701814 343.34913914 -10.6875 344.5625 C-11.31205078 345.43068359 -11.31205078 345.43068359 -11.94921875 346.31640625 C-13.17445667 348.13331661 -13.17445667 348.13331661 -14 351 C-15.31200404 352.35432675 -16.64631404 353.68733482 -18 355 C-18.66 355.99 -19.32 356.98 -20 358 C-20.52464844 358.40089844 -21.04929687 358.80179687 -21.58984375 359.21484375 C-23.79699887 362.00894317 -23.49450966 365.1403196 -23.5625 368.5625 C-23.74493243 375.74493243 -23.74493243 375.74493243 -26 378 C-29.2578125 378.1953125 -29.2578125 378.1953125 -33.125 378.125 C-34.40632813 378.10695313 -35.68765625 378.08890625 -37.0078125 378.0703125 C-38.48894531 378.03550781 -38.48894531 378.03550781 -40 378 C-41.96458792 374.70735648 -42.24657267 372.23842171 -42.23046875 368.4296875 C-42.22853516 367.36878906 -42.22660156 366.30789063 -42.22460938 365.21484375 C-42.21236328 364.11269531 -42.20011719 363.01054687 -42.1875 361.875 C-42.18685547 360.76511719 -42.18621094 359.65523438 -42.18554688 358.51171875 C-42.14043257 350.28086515 -42.14043257 350.28086515 -41 348 C-40.34 348 -39.68 348 -39 348 C-39 347.01 -39 346.02 -39 345 C-37.68799596 343.64567325 -36.35368596 342.31266518 -35 341 C-34.67 340.01 -34.34 339.02 -34 338 C-32.5625 336.3125 -32.5625 336.3125 -31 335 C-30.34 335 -29.68 335 -29 335 C-28.9071875 334.195625 -28.9071875 334.195625 -28.8125 333.375 C-28 331 -28 331 -25.47973633 328.38037109 C-22.2739977 324.60290518 -22.34815077 321.33388629 -22.51171875 316.5390625 C-22.51879349 315.74849457 -22.52586823 314.95792664 -22.53315735 314.1434021 C-22.56098537 311.63627567 -22.62369526 309.13144288 -22.6875 306.625 C-22.71259816 304.91800117 -22.73540867 303.21096708 -22.75585938 301.50390625 C-22.81077309 297.33506352 -22.89695924 293.16791962 -23 289 C-23.99 288.67 -24.98 288.34 -26 288 C-27.34090759 287.34870203 -28.67592331 286.68486725 -30 286 C-30 285.01 -30 284.02 -30 283 C-31.65 282.67 -33.3 282.34 -35 282 C-35.0093457 283.12494873 -35.01869141 284.24989746 -35.02832031 285.40893555 C-35.06827255 289.59325369 -35.13404552 293.77684063 -35.20751953 297.96069336 C-35.23569889 299.76951689 -35.25692855 301.57846286 -35.27099609 303.38745117 C-35.29246814 305.99200994 -35.33913811 308.59510134 -35.390625 311.19921875 C-35.39246796 312.40731453 -35.39246796 312.40731453 -35.39434814 313.63981628 C-35.49602246 317.56069058 -35.73838208 319.57764928 -37.85058594 322.98754883 C-40 325 -40 325 -43 326 C-43 326.99 -43 327.98 -43 329 C-43.66 329 -44.32 329 -45 329 C-45.268125 329.56203125 -45.53625 330.1240625 -45.8125 330.703125 C-47.0803979 333.15550646 -48.48972342 335.43927683 -50 337.75 C-50.515625 338.54921875 -51.03125 339.3484375 -51.5625 340.171875 C-52.2740625 341.07679688 -52.2740625 341.07679688 -53 342 C-53.66 342 -54.32 342 -55 342 C-55.12375 342.598125 -55.2475 343.19625 -55.375 343.8125 C-56 346 -56 346 -58 349 C-58.66 349 -59.32 349 -60 349 C-60.226875 349.680625 -60.45375 350.36125 -60.6875 351.0625 C-62 354 -62 354 -64.5625 357 C-68.31550953 361.95618024 -67.90100475 368.01528732 -68 374 C-68.66 374 -69.32 374 -70 374 C-70.99 375.98 -70.99 375.98 -72 378 C-73.95766281 378.08082094 -75.91626728 378.13910778 -77.875 378.1875 C-78.96554688 378.22230469 -80.05609375 378.25710938 -81.1796875 378.29296875 C-82.11039063 378.19628906 -83.04109375 378.09960938 -84 378 C-86.36008817 374.45986775 -86.23463644 372.98878045 -86.1953125 368.80078125 C-86.18564453 366.98803711 -86.18564453 366.98803711 -86.17578125 365.13867188 C-86.15902344 363.87603516 -86.14226562 362.61339844 -86.125 361.3125 C-86.11597656 360.03826172 -86.10695312 358.76402344 -86.09765625 357.45117188 C-86.07405641 354.30059373 -86.04113194 351.15039017 -86 348 C-85.01 347.67 -84.02 347.34 -83 347 C-83 346.01 -83 345.02 -83 344 C-82.34 344 -81.68 344 -81 344 C-81 343.01 -81 342.02 -81 341 C-79.625 339.3125 -79.625 339.3125 -78 338 C-77.34 338 -76.68 338 -76 338 C-76 336.68 -76 335.36 -76 334 C-75.34 334 -74.68 334 -74 334 C-74 333.01 -74 332.02 -74 331 C-73.01 331 -72.02 331 -71 331 C-71 329.68 -71 328.36 -71 327 C-70.34 327 -69.68 327 -69 327 C-69 326.34 -69 325.68 -69 325 C-68.01 325 -67.02 325 -66 325 C-66 323.68 -66 322.36 -66 321 C-65.34 321 -64.68 321 -64 321 C-64 320.01 -64 319.02 -64 318 C-63.01 318 -62.02 318 -61 318 C-61 316.68 -61 315.36 -61 314 C-60.34 314 -59.68 314 -59 314 C-58.67 313.01 -58.34 312.02 -58 311 C-57.34 310.01 -56.68 309.02 -56 308 C-55.34 308 -54.68 308 -54 308 C-54 292.82 -54 277.64 -54 262 C-54.66 262 -55.32 262 -56 262 C-57.625 260.6875 -57.625 260.6875 -59 259 C-59 258.01 -59 257.02 -59 256 C-59.66 256 -60.32 256 -61 256 C-61 255.01 -61 254.02 -61 253 C-61.66 253 -62.32 253 -63 253 C-63.33 252.01 -63.66 251.02 -64 250 C-64.66 249.67 -65.32 249.34 -66 249 C-67 247 -68 245 -69 243 C-69.66 242.67 -70.32 242.34 -71 242 C-71 240.35 -71 238.7 -71 237 C-71.66 237 -72.32 237 -73 237 C-73.33 236.01 -73.66 235.02 -74 234 C-74.66 233.67 -75.32 233.34 -76 233 C-76 231.02 -76 229.04 -76 227 C-76.66 227 -77.32 227 -78 227 C-78.33 225.35 -78.66 223.7 -79 222 C-79.66 222 -80.32 222 -81 222 C-81.33 220.02 -81.66 218.04 -82 216 C-82.33 216 -82.66 216 -83 216 C-84.57578241 210.70987333 -85.84941444 205.39795989 -87 200 C-87.33 200 -87.66 200 -88 200 C-88.22786458 197.94921875 -88.45572917 195.8984375 -88.68359375 193.84765625 C-88.81886614 191.98859771 -88.81886614 191.98859771 -90 191 C-90.39993686 188.31137336 -90.75134543 185.63647783 -91.0625 182.9375 C-91.19881836 181.79958008 -91.19881836 181.79958008 -91.33789062 180.63867188 C-91.5624374 178.7595699 -91.78170978 176.87983905 -92 175 C-92.33 175 -92.66 175 -93 175 C-93.05067427 167.52525728 -93.08572275 160.05055881 -93.10986328 152.57568359 C-93.11992616 150.03237248 -93.13357774 147.48907295 -93.15087891 144.94580078 C-93.17511427 141.29196312 -93.18648027 137.63827832 -93.1953125 133.984375 C-93.20563507 132.84570984 -93.21595764 131.70704468 -93.22659302 130.53387451 C-93.22674408 129.47307678 -93.22689514 128.41227905 -93.22705078 127.31933594 C-93.231492 126.38667908 -93.23593323 125.45402222 -93.24050903 124.49310303 C-92.98582145 121.85302597 -92.27004904 120.29790608 -91 118 C-90.58565852 115.44751765 -90.58565852 115.44751765 -90.4375 112.8125 C-90.09936909 108.09936909 -90.09936909 108.09936909 -89 107 C-88.76924918 105.65252916 -88.58846937 104.29622435 -88.4375 102.9375 C-88.293125 101.638125 -88.14875 100.33875 -88 99 C-87.34 99 -86.68 99 -86 99 C-86.04125 97.72125 -86.0825 96.4425 -86.125 95.125 C-86.1953125 92.9453125 -86.1953125 92.9453125 -86 91 C-85.01 90.01 -85.01 90.01 -84 89 C-83.60235737 87.01178687 -83.26224651 85.01055661 -83 83 C-82.34 83 -81.68 83 -81 83 C-81.061875 82.113125 -81.12375 81.22625 -81.1875 80.3125 C-80.97935526 76.63527631 -80.21793417 74.90037545 -78 72 C-77.34 72 -76.68 72 -76 72 C-76 70.02 -76 68.04 -76 66 C-75.01 65.505 -75.01 65.505 -74 65 C-73.67 64.01 -73.34 63.02 -73 62 C-72.34 62 -71.68 62 -71 62 C-71.061875 61.071875 -71.12375 60.14375 -71.1875 59.1875 C-71 56 -71 56 -69.625 54.125 C-68 53 -68 53 -66 53 C-66 51.68 -66 50.36 -66 49 C-64.625 47.25 -64.625 47.25 -63 46 C-62.34 46 -61.68 46 -61 46 C-60.855625 45.401875 -60.71125 44.80375 -60.5625 44.1875 C-60.1127561 42.43849596 -59.57107659 40.71322977 -59 39 C-58.01 39 -57.02 39 -56 39 C-56 38.01 -56 37.02 -56 36 C-54.625 34.3125 -54.625 34.3125 -53 33 C-52.34 33 -51.68 33 -51 33 C-50.8453125 32.071875 -50.8453125 32.071875 -50.6875 31.125 C-50 29 -50 29 -47 27 C-46.525625 26.505 -46.05125 26.01 -45.5625 25.5 C-44 24 -44 24 -41.875 23 C-39.6469565 22.08797022 -39.6469565 22.08797022 -39 19 C-38.01 19 -37.02 19 -36 19 C-36 18.01 -36 17.02 -36 16 C-34.35 16 -32.7 16 -31 16 C-31 15.01 -31 14.02 -31 13 C-30.360625 12.87625 -29.72125 12.7525 -29.0625 12.625 C-28.381875 12.41875 -27.70125 12.2125 -27 12 C-26.67 11.34 -26.34 10.68 -26 10 C-23.6859378 9.26924352 -21.35171131 8.59861742 -19 8 C-19 7.34 -19 6.68 -19 6 C-16.03 5.505 -16.03 5.505 -13 5 C-13 4.34 -13 3.68 -13 3 C-12.14535156 2.95101562 -11.29070312 2.90203125 -10.41015625 2.8515625 C-9.30542969 2.77679688 -8.20070313 2.70203125 -7.0625 2.625 C-5.96035156 2.55539063 -4.85820312 2.48578125 -3.72265625 2.4140625 C-2.82417969 2.27742187 -1.92570312 2.14078125 -1 2 C-0.67 1.34 -0.34 0.68 0 0 Z M15 24 C14.67 24.66 14.34 25.32 14 26 C11.9375 26.625 11.9375 26.625 10 27 C10 27.99 10 28.98 10 30 C9.34 30 8.68 30 8 30 C8 30.99 8 31.98 8 33 C7.01 33.33 6.02 33.66 5 34 C2.63019987 36.95377498 2.63019987 36.95377498 3 41 C2.34 41 1.68 41 1 41 C-0.27253436 44.64793184 -1.32829194 48.1936543 -2 52 C-2.66 52 -3.32 52 -4 52 C-4.12375 53.27875 -4.2475 54.5575 -4.375 55.875 C-4.75 59.75 -4.75 59.75 -7 62 C-7.16681109 65.08347826 -7.16681109 65.08347826 -7 68 C-7.66 68 -8.32 68 -9 68 C-9 69.32 -9 70.64 -9 72 C-7.081875 72.185625 -7.081875 72.185625 -5.125 72.375 C-1.25 72.75 -1.25 72.75 1 75 C3.70135323 75.19973733 6.29797211 75.27981573 9 75.265625 C10.18722656 75.26849518 10.18722656 75.26849518 11.3984375 75.27142334 C13.0729199 75.27278518 14.74741285 75.26908882 16.421875 75.26074219 C18.98982381 75.2500424 21.55707303 75.26063725 24.125 75.2734375 C25.75000155 75.2721159 27.37500266 75.26955351 29 75.265625 C30.15628906 75.27169769 30.15628906 75.27169769 31.3359375 75.27789307 C35.63129437 75.39644711 35.63129437 75.39644711 39 73 C41.32275177 72.59952556 43.65739357 72.2602896 46 72 C46 70.35 46 68.7 46 67 C45.67 67 45.34 67 45 67 C44.505 64.03 44.505 64.03 44 61 C43.34 61 42.68 61 42 61 C42 58.36 42 55.72 42 53 C41.01 52.67 40.02 52.34 39 52 C39 50.35 39 48.7 39 47 C38.34 47 37.68 47 37 47 C36.505 43.535 36.505 43.535 36 40 C35.34 40 34.68 40 34 40 C34 39.01 34 38.02 34 37 C33.34 37 32.68 37 32 37 C32 35.68 32 34.36 32 33 C31.34 33 30.68 33 30 33 C29.505 31.515 29.505 31.515 29 30 C28.34 30 27.68 30 27 30 C27 29.01 27 28.02 27 27 C26.401875 26.896875 25.80375 26.79375 25.1875 26.6875 C22.70138466 25.90614947 21.77056558 24.85104584 20 23 C17.78918149 22.89459074 17.78918149 22.89459074 15 24 Z M-18 33 C-18.33 33.99 -18.66 34.98 -19 36 C-20.65 36.33 -22.3 36.66 -24 37 C-24 37.99 -24 38.98 -24 40 C-24.721875 40.061875 -25.44375 40.12375 -26.1875 40.1875 C-29.85380599 41.24665507 -31.44214339 43.23474962 -34 46 C-34.99 46.495 -34.99 46.495 -36 47 C-36 47.66 -36 48.32 -36 49 C-36.928125 49.3403125 -36.928125 49.3403125 -37.875 49.6875 C-40.61410209 51.37929835 -41.05024472 52.99244161 -42 56 C-42.99 56 -43.98 56 -45 56 C-44.3384196 59.10443277 -44.3384196 59.10443277 -42 60.125 C-41.01 60.558125 -41.01 60.558125 -40 61 C-39.67 61.33 -39.34 61.66 -39 62 C-37.00041636 62.04080783 -34.99954746 62.04254356 -33 62 C-33 62.99 -33 63.98 -33 65 C-31.02 65.33 -29.04 65.66 -27 66 C-23.46713966 61.43672206 -23.67625483 57.50366792 -24 52 C-23.34 52 -22.68 52 -22 52 C-21.67 50.02 -21.34 48.04 -21 46 C-20.67 46 -20.34 46 -20 46 C-19.46605821 44.5882217 -18.94834896 43.17029756 -18.4375 41.75 C-18.14746094 40.96109375 -17.85742188 40.1721875 -17.55859375 39.359375 C-16.95477163 36.80896548 -17.1526068 35.44677771 -18 33 Z M54 33 C54.49756092 35.75641416 54.49756092 35.75641416 56 38 C56.12375 39.03125 56.2475 40.0625 56.375 41.125 C57.04473892 45.2773813 58.22550585 48.21955594 60 52 C60.66 52 61.32 52 62 52 C62 55.3 62 58.6 62 62 C62.66 62 63.32 62 64 62 C64 63.32 64 64.64 64 66 C66.31 65.34 68.62 64.68 71 64 C71 63.67 71 63.34 71 63 C72.98 62.34 74.96 61.68 77 61 C77 60.34 77 59.68 77 59 C78.98 58.67 80.96 58.34 83 58 C83 57.34 83 56.68 83 56 C81.68 56 80.36 56 79 56 C78.87625 55.1646875 78.87625 55.1646875 78.75 54.3125 C77.36159692 50.03159052 74.67972684 47.45315123 71 45 C70.67 44.34 70.34 43.68 70 43 C68.68 43 67.36 43 66 43 C66 42.01 66 41.02 66 40 C64.68 40 63.36 40 62 40 C62 39.01 62 38.02 62 37 C61.195625 36.71125 60.39125 36.4225 59.5625 36.125 C57 35 57 35 56 33 C55.34 33 54.68 33 54 33 Z M-58 76 C-58 77.32 -58 78.64 -58 80 C-58.66 80 -59.32 80 -60 80 C-60.33 81.98 -60.66 83.96 -61 86 C-61.66 86 -62.32 86 -63 86 C-63 87.98 -63 89.96 -63 92 C-63.66 92 -64.32 92 -65 92 C-65.33 94.31 -65.66 96.62 -66 99 C-66.66 99 -67.32 99 -68 99 C-68 101.64 -68 104.28 -68 107 C-68.66 107 -69.32 107 -70 107 C-70 110.3 -70 113.6 -70 117 C-71.485 117.495 -71.485 117.495 -73 118 C-73 123.61 -73 129.22 -73 135 C-73.66 135 -74.32 135 -75 135 C-75 135.66 -75 136.32 -75 137 C-54.705 137.495 -54.705 137.495 -34 138 C-34 125.79 -34 113.58 -34 101 C-33.34 101 -32.68 101 -32 101 C-32 97.04 -32 93.08 -32 89 C-33.134375 88.87625 -34.26875 88.7525 -35.4375 88.625 C-36.613125 88.41875 -37.78875 88.2125 -39 88 C-39.495 87.01 -39.495 87.01 -40 86 C-41.65 86 -43.3 86 -45 86 C-45.33 84.68 -45.66 83.36 -46 82 C-47.65 82 -49.3 82 -51 82 C-51.33 81.01 -51.66 80.02 -52 79 C-53.32 79 -54.64 79 -56 79 C-56 78.01 -56 77.02 -56 76 C-56.66 76 -57.32 76 -58 76 Z M94 76 C93.67 76.66 93.34 77.32 93 78 C91.3523962 78.71247732 89.68236471 79.37400383 88 80 C86.65909241 80.65129797 85.32407669 81.31513275 84 82 C83.01 82.495 83.01 82.495 82 83 C82 83.99 82 84.98 82 86 C80.35 86 78.7 86 77 86 C77 86.99 77 87.98 77 89 C74.36 89 71.72 89 69 89 C68.94570041 90.74965358 68.90707177 92.49979787 68.875 94.25 C68.85179687 95.22453125 68.82859375 96.1990625 68.8046875 97.203125 C68.78588978 99.92508959 68.78588978 99.92508959 70 101.69921875 C71.41956899 104.96533647 71.24677549 108.11360712 71.1953125 111.609375 C71.1924826 112.33618469 71.18965271 113.06299438 71.18673706 113.81182861 C71.17557523 116.12472251 71.15047851 118.43722388 71.125 120.75 C71.11496501 122.32160898 71.10584006 123.89322404 71.09765625 125.46484375 C71.07564904 129.31004622 71.04114715 133.15495664 71 137 C74.33761231 138.66880615 78.06759523 137.99628371 81.7265625 137.87890625 C82.58937836 137.85529526 83.45219421 137.83168427 84.34115601 137.80735779 C87.10260206 137.73065703 89.86377218 137.64666038 92.625 137.5625 C94.49477807 137.50928573 96.36456969 137.45654529 98.234375 137.40429688 C102.82309209 137.27503321 107.41157477 137.13922496 112 137 C112 136.34 112 135.68 112 135 C111.34 135 110.68 135 110 135 C110 129.06 110 123.12 110 117 C109.34 117 108.68 117 108 117 C108.04125 115.9275 108.0825 114.855 108.125 113.75 C108.00373359 110.11200778 107.61745319 109.04461777 106 106 C105.61250787 103.67504723 105.27017161 101.34148732 105 99 C104.34 99 103.68 99 103 99 C103.0928125 97.7315625 103.0928125 97.7315625 103.1875 96.4375 C102.95984372 92.26380157 101.79792186 89.74567053 100 86 C99.34 86 98.68 86 98 86 C98.0825 85.278125 98.165 84.55625 98.25 83.8125 C97.92573441 80.16451206 96.42680413 78.65431702 94 76 Z M46 97 C46 97.33 46 97.66 46 98 C44.96359375 98.04898438 43.9271875 98.09796875 42.859375 98.1484375 C41.48955792 98.22349597 40.11976752 98.29904247 38.75 98.375 C38.06808594 98.4059375 37.38617188 98.436875 36.68359375 98.46875 C32.72431586 98.67210441 32.72431586 98.67210441 29.05078125 100.0234375 C25.66268707 101.63681568 22.13652896 101.28745852 18.4375 101.25 C17.66986328 101.25773437 16.90222656 101.26546875 16.11132812 101.2734375 C12.22792179 101.25989467 10.29975323 101.19983549 7 99 C4.24582682 98.69933846 1.57354853 98.49074701 -1.1875 98.375 C-2.31188477 98.31699219 -2.31188477 98.31699219 -3.45898438 98.2578125 C-5.30559199 98.16371784 -7.1527619 98.08077681 -9 98 C-9 97.34 -9 96.68 -9 96 C-10.65 96 -12.3 96 -14 96 C-14.33 101.61 -14.66 107.22 -15 113 C-15.33 113 -15.66 113 -16 113 C-16.33 120.92 -16.66 128.84 -17 137 C-14.11175327 138.44412336 -11.66491554 138.0745168 -8.43896484 138.02172852 C-7.76567642 138.01212097 -7.092388 138.00251343 -6.3986969 137.99261475 C-4.16933863 137.95958733 -1.94017404 137.91926946 0.2890625 137.87890625 C1.83319411 137.85460878 3.37733291 137.83076503 4.92147827 137.80735779 C8.98877149 137.74447971 13.05593747 137.67542366 17.12310791 137.60510254 C21.27211708 137.53445268 25.42121658 137.4696157 29.5703125 137.40429688 C37.71364167 137.27523655 45.85684563 137.13965278 54 137 C54.05786668 133.20839703 54.09355054 129.41690689 54.125 125.625 C54.15013672 124.00464844 54.15013672 124.00464844 54.17578125 122.3515625 C54.18222656 121.3203125 54.18867188 120.2890625 54.1953125 119.2265625 C54.20578613 118.27346191 54.21625977 117.32036133 54.22705078 116.33837891 C54.23131867 113.8076787 54.23131867 113.8076787 52 112 C51.69324768 109.10032243 51.48826629 106.28216822 51.375 103.375 C51.33632813 102.57320313 51.29765625 101.77140625 51.2578125 100.9453125 C51.16346069 98.96392444 51.08063785 96.98199355 51 95 C49.15953612 95 47.60370406 96.17228177 46 97 Z M-75 161 C-74.67 161.99 -74.34 162.98 -74 164 C-73.85596652 165.33363703 -73.75409577 166.67218046 -73.68359375 168.01171875 C-73.64169922 168.76904297 -73.59980469 169.52636719 -73.55664062 170.30664062 C-73.51732422 171.09232422 -73.47800781 171.87800781 -73.4375 172.6875 C-73.39431641 173.48478516 -73.35113281 174.28207031 -73.30664062 175.10351562 C-73.20072632 177.06881447 -73.09987449 179.03438496 -73 181 C-72.01 181.33 -71.02 181.66 -70 182 C-70 185.3 -70 188.6 -70 192 C-69.67 192 -69.34 192 -69 192 C-68.87625 193.11375 -68.7525 194.2275 -68.625 195.375 C-68.3534187 199.03103677 -68.3534187 199.03103677 -66 201 C-65.60235737 202.98821313 -65.26224651 204.98944339 -65 207 C-64.67 207 -64.34 207 -64 207 C-62.66666667 211 -61.33333333 215 -60 219 C-59.34 219 -58.68 219 -58 219 C-57.67 220.32 -57.34 221.64 -57 223 C-56.67 222.01 -56.34 221.02 -56 220 C-53.525 219.505 -53.525 219.505 -51 219 C-51 218.01 -51 217.02 -51 216 C-49.02 216 -47.04 216 -45 216 C-45 215.01 -45 214.02 -45 213 C-43.35 213 -41.7 213 -40 213 C-39.505 212.01 -39.505 212.01 -39 211 C-36.66666667 210.66666667 -34.33333333 210.33333333 -32 210 C-30.68842484 207.37684968 -31.10350012 205.76966564 -31.4375 202.875 C-31.59025391 201.50988281 -31.59025391 201.50988281 -31.74609375 200.1171875 C-31.82988281 199.41851562 -31.91367187 198.71984375 -32 198 C-32.66 198 -33.32 198 -34 198 C-34 185.79 -34 173.58 -34 161 C-47.53 161 -61.06 161 -75 161 Z M-17 161 C-16.67 168.92 -16.34 176.84 -16 185 C-15.67 185 -15.34 185 -15 185 C-14.67 190.94 -14.34 196.88 -14 203 C-12.35 203 -10.7 203 -9 203 C-9 202.01 -9 201.02 -9 200 C-3.4173209 199.97498455 2.16532443 199.95699318 7.74804688 199.94506836 C9.64095631 199.94008871 11.53386201 199.93330257 13.42675781 199.92456055 C39.03696874 199.80938235 39.03696874 199.80938235 46 201 C46.33 201.66 46.66 202.32 47 203 C48.32 203 49.64 203 51 203 C51.07347656 201.31970703 51.07347656 201.31970703 51.1484375 199.60546875 C51.22347856 198.13278797 51.29902582 196.66013293 51.375 195.1875 C51.4059375 194.44951172 51.436875 193.71152344 51.46875 192.95117188 C51.67346148 189.18106885 51.86433827 187.20349259 54 184 C54 176.41 54 168.82 54 161 C30.57 161 7.14 161 -17 161 Z M72 161 C70.53053407 163.93893187 70.92580387 166.524266 70.97265625 169.80078125 C70.98530831 171.18424224 70.99766884 172.56770592 71.00976562 173.95117188 C71.03453023 176.13021236 71.06244792 178.30911275 71.09594727 180.48803711 C71.12628449 182.59229389 71.14396983 184.69637453 71.16015625 186.80078125 C71.17699463 188.06059814 71.19383301 189.32041504 71.21118164 190.6184082 C71.00560178 193.91030036 70.34329261 196.02806737 69 199 C68.76076461 201.66723306 68.76076461 201.66723306 68.875 204.3125 C68.89304687 205.19550781 68.91109375 206.07851563 68.9296875 206.98828125 C68.96449219 207.98408203 68.96449219 207.98408203 69 209 C70.670625 209.433125 70.670625 209.433125 72.375 209.875 C76 211 76 211 78 213 C79.32520503 213.68268138 80.65812182 214.3507041 82 215 C82.33 215.33 82.66 215.66 83 216 C84.99958364 216.04080783 87.00045254 216.04254356 89 216 C89 216.99 89 217.98 89 219 C89.639375 219.103125 90.27875 219.20625 90.9375 219.3125 C91.618125 219.539375 92.29875 219.76625 93 220 C93.33 220.99 93.66 221.98 94 223 C94.103125 222.360625 94.20625 221.72125 94.3125 221.0625 C94.539375 220.381875 94.76625 219.70125 95 219 C96.485 218.505 96.485 218.505 98 218 C98.33 216.35 98.66 214.7 99 213 C99.33 213 99.66 213 100 213 C100.309375 212.030625 100.61875 211.06125 100.9375 210.0625 C102 207 102 207 103 206 C103.04080783 204.00041636 103.04254356 201.99954746 103 200 C103.66 200 104.32 200 105 200 C105.185625 198.1128125 105.185625 198.1128125 105.375 196.1875 C105.69868059 192.89674737 106.06604999 191.90092502 108 189 C108.07905064 186.66800612 108.08798769 184.33167378 108 182 C108.66 182 109.32 182 110 182 C110 176.06 110 170.12 110 164 C110.66 164 111.32 164 112 164 C112 163.01 112 162.02 112 161 C98.8 161 85.6 161 72 161 Z M0 224 C0 224.99 0 225.98 0 227 C-2.97 226.67 -5.94 226.34 -9 226 C-9 227.65 -9 229.3 -9 231 C-8.34 231 -7.68 231 -7 231 C-6.67 233.31 -6.34 235.62 -6 238 C-5.34 238 -4.68 238 -4 238 C-4 240.64 -4 243.28 -4 246 C-3.34 246 -2.68 246 -2 246 C-2 247.65 -2 249.3 -2 251 C-1.01 251.33 -0.02 251.66 1 252 C1 253.98 1 255.96 1 258 C1.66 258 2.32 258 3 258 C3.12375 258.5775 3.2475 259.155 3.375 259.75 C4.62126625 264.23655849 6.84623258 267.57590966 10 271 C12.59915538 272.19027984 12.59915538 272.19027984 15 273 C15.33 273.66 15.66 274.32 16 275 C17.98 275 19.96 275 22 275 C22 274.34 22 273.68 22 273 C24.475 272.505 24.475 272.505 27 272 C27 271.01 27 270.02 27 269 C27.99 268.67 28.98 268.34 30 268 C30.66 267.34 31.32 266.68 32 266 C32 264.68 32 263.36 32 262 C32.66 262 33.32 262 34 262 C34 260.68 34 259.36 34 258 C34.66 258 35.32 258 36 258 C36.26554687 257.22914063 36.53109375 256.45828125 36.8046875 255.6640625 C37.15789062 254.66117188 37.51109375 253.65828125 37.875 252.625 C38.39707031 251.12839844 38.39707031 251.12839844 38.9296875 249.6015625 C40 247 40 247 42 245 C42.16677282 241.41656024 42.16677282 241.41656024 42 238 C42.66 238 43.32 238 44 238 C44.33 235.69 44.66 233.38 45 231 C45.33 231 45.66 231 46 231 C46 229.35 46 227.7 46 226 C43.36 226 40.72 226 38 226 C37.505 225.01 37.505 225.01 37 224 C24.79 224 12.58 224 0 224 Z M-31 233 C-31.45375 233.45375 -31.9075 233.9075 -32.375 234.375 C-34.61203722 236.61203722 -37.00398207 237.13448371 -40 238 C-40 238.33 -40 238.66 -40 239 C-41.65 239.33 -43.3 239.66 -45 240 C-45.23180714 242.20983376 -45.23180714 242.20983376 -43.125 243.9375 C-42.42375 244.618125 -41.7225 245.29875 -41 246 C-40.01 247.485 -40.01 247.485 -39 249 C-38.01 249 -37.02 249 -36 249 C-36 249.99 -36 250.98 -36 252 C-35.01 252 -34.02 252 -33 252 C-33 252.99 -33 253.98 -33 255 C-32.360625 255.103125 -31.72125 255.20625 -31.0625 255.3125 C-30.0415625 255.6528125 -30.0415625 255.6528125 -29 256 C-28.67 256.99 -28.34 257.98 -28 259 C-27.01 259.66 -26.02 260.32 -25 261 C-24.67 261.33 -24.34 261.66 -24 262 C-22.33382885 262.04063832 -20.66611905 262.042721 -19 262 C-19 262.99 -19 263.98 -19 265 C-18.34 265 -17.68 265 -17 265 C-17.21462891 264.14148438 -17.21462891 264.14148438 -17.43359375 263.265625 C-18.2890625 259.84375 -19.14453125 256.421875 -20 253 C-20.33 253 -20.66 253 -21 253 C-21.33 251.02 -21.66 249.04 -22 247 C-22.66 247 -23.32 247 -24 247 C-23.9071875 245.205625 -23.9071875 245.205625 -23.8125 243.375 C-23.79056063 239.26502405 -24.86869566 236.5521739 -27 233 C-28.32 233 -29.64 233 -31 233 Z M64 233 C64 233.99 64 234.98 64 236 C63.34 236 62.68 236 62 236 C61.95101562 236.68707031 61.90203125 237.37414062 61.8515625 238.08203125 C61.77679688 238.98308594 61.70203125 239.88414062 61.625 240.8125 C61.55539062 241.70582031 61.48578125 242.59914063 61.4140625 243.51953125 C61 246 61 246 59 249 C59 250.32 59 251.64 59 253 C58.34 253 57.68 253 57 253 C57 255.64 57 258.28 57 261 C56.34 261 55.68 261 55 261 C54.67 262.32 54.34 263.64 54 265 C54.99 265 55.98 265 57 265 C57 264.34 57 263.68 57 263 C58.65 262.67 60.3 262.34 62 262 C62 261.01 62 260.02 62 259 C63.32 259 64.64 259 66 259 C66 258.01 66 257.02 66 256 C66.639375 255.896875 67.27875 255.79375 67.9375 255.6875 C68.618125 255.460625 69.29875 255.23375 70 255 C70.33 254.01 70.66 253.02 71 252 C71.99 251.67 72.98 251.34 74 251 C77.64013067 247.52064528 77.64013067 247.52064528 79 243 C80.32 242.34 81.64 241.68 83 241 C81.5459375 240.566875 81.5459375 240.566875 80.0625 240.125 C77 239 77 239 76 237 C73.47266765 236.34444881 73.47266765 236.34444881 71 236 C71 235.34 71 234.68 71 234 C68.69 233.67 66.38 233.34 64 233 Z " fill="#020202" transform="translate(292,146)"/>
<path d="M0 0 C1.65 0 3.3 0 5 0 C5.33 0.99 5.66 1.98 6 3 C6.66 3.33 7.32 3.66 8 4 C8 4.99 8 5.98 8 7 C8.66 7 9.32 7 10 7 C10 7.99 10 8.98 10 10 C10.99 10 11.98 10 13 10 C13 11.65 13 13.3 13 15 C13.66 15 14.32 15 15 15 C15 16.32 15 17.64 15 19 C14.34 19 13.68 19 13 19 C11.79371992 21.33214148 10.8345262 23.49642139 10 26 C9.34 26 8.68 26 8 26 C8 27.32 8 28.64 8 30 C7.01 30.495 7.01 30.495 6 31 C5.34786708 33.02463255 5.34786708 33.02463255 5 35 C4.34 35 3.68 35 3 35 C3 36.65 3 38.3 3 40 C2.01 40.495 2.01 40.495 1 41 C0.37330801 43.16467461 -0.15427374 45.35864524 -0.625 47.5625 C-0.88539063 48.76003906 -1.14578125 49.95757812 -1.4140625 51.19140625 C-1.60742188 52.11824219 -1.80078125 53.04507813 -2 54 C-2.33 54 -2.66 54 -3 54 C-3.13277344 54.85464844 -3.26554687 55.70929688 -3.40234375 56.58984375 C-3.57894531 57.69457031 -3.75554687 58.79929687 -3.9375 59.9375 C-4.19853516 61.59072266 -4.19853516 61.59072266 -4.46484375 63.27734375 C-5 66 -5 66 -6 67 C-6.11361456 69.89860333 -6.16419106 72.77245321 -6.16796875 75.671875 C-6.17129715 76.54644348 -6.17462555 77.42101196 -6.17805481 78.32208252 C-6.18312943 80.17825798 -6.18546297 82.03444261 -6.18530273 83.890625 C-6.18748011 86.72411313 -6.20560474 89.55720632 -6.22460938 92.390625 C-6.22754505 94.192707 -6.22952868 95.99479085 -6.23046875 97.796875 C-6.23765427 98.64288269 -6.24483978 99.48889038 -6.25224304 100.36053467 C-6.23539265 104.72685367 -5.95800589 108.00317264 -4 112 C-3.50686503 114.66572015 -3.27476368 117.29815717 -3 120 C-2.67 120 -2.34 120 -2 120 C-2 122.31 -2 124.62 -2 127 C-1.34 127 -0.68 127 0 127 C0.12375 128.134375 0.2475 129.26875 0.375 130.4375 C0.58125 131.613125 0.7875 132.78875 1 134 C1.66 134.33 2.32 134.66 3 135 C3 136.32 3 137.64 3 139 C3.66 139 4.32 139 5 139 C5.20625 139.804375 5.4125 140.60875 5.625 141.4375 C7.17308422 145.44844549 9.27831885 148.55897484 11.7578125 152.046875 C13 154 13 154 13 156 C13.66 156 14.32 156 15 156 C15 156.99 15 157.98 15 159 C14.34 159 13.68 159 13 159 C13 160.65 13 162.3 13 164 C12.34 164.33 11.68 164.66 11 165 C10.67 165.99 10.34 166.98 10 168 C9.34 168 8.68 168 8 168 C8 168.99 8 169.98 8 171 C7.01 171 6.02 171 5 171 C4.67 172.32 4.34 173.64 4 175 C2.68 174.67 1.36 174.34 0 174 C0 173.01 0 172.02 0 171 C-0.66 171 -1.32 171 -2 171 C-2 170.01 -2 169.02 -2 168 C-2.99 168 -3.98 168 -5 168 C-5.268125 167.236875 -5.53625 166.47375 -5.8125 165.6875 C-6.77936436 162.99371254 -6.77936436 162.99371254 -8.625 161.5625 C-10 160 -10 160 -10.1875 156.8125 C-10.125625 155.884375 -10.06375 154.95625 -10 154 C-10.66 154 -11.32 154 -12 154 C-12.33 153.01 -12.66 152.02 -13 151 C-13.66 150.67 -14.32 150.34 -15 150 C-15 147.36 -15 144.72 -15 142 C-15.66 142 -16.32 142 -17 142 C-17.99 139.525 -17.99 139.525 -19 137 C-19.33 137 -19.66 137 -20 137 C-20 133.37 -20 129.74 -20 126 C-20.66 126 -21.32 126 -22 126 C-22.33 123.03 -22.66 120.06 -23 117 C-23.66 117 -24.32 117 -25 117 C-25 97.2 -25 77.4 -25 57 C-24.01 56.505 -24.01 56.505 -23 56 C-22.59270772 53.67843403 -22.25561323 51.3431213 -22 49 C-21.34 49 -20.68 49 -20 49 C-20 45.37 -20 41.74 -20 38 C-19.01 37.505 -19.01 37.505 -18 37 C-17.34444881 34.47266765 -17.34444881 34.47266765 -17 32 C-16.34 32 -15.68 32 -15 32 C-15 29.69 -15 27.38 -15 25 C-14.34 25 -13.68 25 -13 25 C-12.01 21.7 -11.02 18.4 -10 15 C-9.34 15 -8.68 15 -8 15 C-6.91887052 12.98189163 -6.048936 11.260992 -5.625 9 C-4.77058078 6.2658585 -3.03323568 4.96969707 -1 3 C-0.67 2.01 -0.34 1.02 0 0 Z " fill="#020202" transform="translate(143,208)"/>
<path d="M0 0 C14.52 0 29.04 0 44 0 C44 0.99 44 1.98 44 3 C46.31 3.33 48.62 3.66 51 4 C51 4.66 51 5.32 51 6 C53.64 6.33 56.28 6.66 59 7 C59 7.66 59 8.32 59 9 C60.32 9.33 61.64 9.66 63 10 C63 10.99 63 11.98 63 13 C63.804375 13.12375 64.60875 13.2475 65.4375 13.375 C66.283125 13.58125 67.12875 13.7875 68 14 C68.495 14.99 68.495 14.99 69 16 C69.99 16.66 70.98 17.32 72 18 C74.69838448 20.56675597 76.93032576 22.89548863 79 26 C80.485 26.495 80.485 26.495 82 27 C82 27.99 82 28.98 82 30 C82.66 30 83.32 30 84 30 C84.495 31.485 84.495 31.485 85 33 C85.66 33.33 86.32 33.66 87 34 C87 35.98 87 37.96 87 40 C86.01 40 85.02 40 84 40 C84 41.32 84 42.64 84 44 C83.34 44 82.68 44 82 44 C82 44.99 82 45.98 82 47 C81.01 47 80.02 47 79 47 C79 47.99 79 48.98 79 50 C75.8125 50.8125 75.8125 50.8125 72 51 C69.03052618 48.7054066 67.31710542 46.54542133 65.4375 43.3125 C63.82213395 40.71386766 62.77891922 40.12893593 60 39 C58.515 38.01 58.515 38.01 57 37 C57 36.01 57 35.02 57 34 C55.02 34 53.04 34 51 34 C51 33.01 51 32.02 51 31 C49.68 31 48.36 31 47 31 C47 30.01 47 29.02 47 28 C46.28972656 27.95101562 45.57945312 27.90203125 44.84765625 27.8515625 C43.92855469 27.77679688 43.00945312 27.70203125 42.0625 27.625 C41.14597656 27.55539063 40.22945313 27.48578125 39.28515625 27.4140625 C38.53105469 27.27742188 37.77695312 27.14078125 37 27 C36.505 26.01 36.505 26.01 36 25 C26.43 25 16.86 25 7 25 C7 25.66 7 26.32 7 27 C3.37 27.33 -0.26 27.66 -4 28 C-4 28.99 -4 29.98 -4 31 C-5.32 31 -6.64 31 -8 31 C-8 31.99 -8 32.98 -8 34 C-9.98 34 -11.96 34 -14 34 C-14 34.99 -14 35.98 -14 37 C-15.93823179 39.39971554 -16.99390037 39.99796679 -20 41 C-20.33 41.99 -20.66 42.98 -21 44 C-21.99 44 -22.98 44 -24 44 C-24 44.99 -24 45.98 -24 47 C-25.875 49.1875 -25.875 49.1875 -28 51 C-28.66 51 -29.32 51 -30 51 C-30 51.66 -30 52.32 -30 53 C-30.66 53 -31.32 53 -32 53 C-32 52.34 -32 51.68 -32 51 C-33.32 50.67 -34.64 50.34 -36 50 C-36 49.01 -36 48.02 -36 47 C-36.99 46.67 -37.98 46.34 -39 46 C-39.66 45.34 -40.32 44.68 -41 44 C-41 42.68 -41 41.36 -41 40 C-41.66 40 -42.32 40 -43 40 C-43 38.02 -43 36.04 -43 34 C-42.34 34 -41.68 34 -41 34 C-41 32.68 -41 31.36 -41 30 C-38.625 27.9375 -38.625 27.9375 -36 26 C-35.34 25.01 -34.68 24.02 -34 23 C-33.34 23 -32.68 23 -32 23 C-32 22.01 -32 21.02 -32 20 C-30.68 20 -29.36 20 -28 20 C-28 19.01 -28 18.02 -28 17 C-26.16015919 14.34245216 -25.02914465 14.0062861 -21.8125 13.3125 C-20.884375 13.209375 -19.95625 13.10625 -19 13 C-19 12.01 -19 11.02 -19 10 C-17.68 10 -16.36 10 -15 10 C-15 9.01 -15 8.02 -15 7 C-13.865625 6.87625 -12.73125 6.7525 -11.5625 6.625 C-10.386875 6.41875 -9.21125 6.2125 -8 6 C-7.67 5.34 -7.34 4.68 -7 4 C-3.9375 3.375 -3.9375 3.375 -1 3 C-0.67 2.01 -0.34 1.02 0 0 Z " fill="#020202" transform="translate(289,37)"/>
<path d="M0 0 C1.32 0 2.64 0 4 0 C4 0.99 4 1.98 4 3 C4.99 3.33 5.98 3.66 7 4 C7 4.99 7 5.98 7 7 C7.66 7 8.32 7 9 7 C11.04169485 9.90548882 12 11.40142046 12 15 C12.66 15 13.32 15 14 15 C15.12880057 18.31114834 16.21302675 21.58978257 17 25 C17.66 25 18.32 25 19 25 C19.12375 26.134375 19.2475 27.26875 19.375 28.4375 C19.58125 29.613125 19.7875 30.78875 20 32 C20.66 32.33 21.32 32.66 22 33 C22 34.65 22 36.3 22 38 C22.66 38 23.32 38 24 38 C24 41.63 24 45.26 24 49 C24.99 49.33 25.98 49.66 27 50 C27.495 52.97 27.495 52.97 28 56 C28.33 56 28.66 56 29 56 C29 76.79 29 97.58 29 119 C28.67 119 28.34 119 28 119 C27.690625 119.969375 27.38125 120.93875 27.0625 121.9375 C26 125 26 125 25 126 C24.76636119 127.84891946 24.58696365 129.70488031 24.4375 131.5625 C24.35371094 132.57441406 24.26992188 133.58632813 24.18359375 134.62890625 C24.12300781 135.41136719 24.06242187 136.19382812 24 137 C23.67 137 23.34 137 23 137 C22.814375 138.2065625 22.814375 138.2065625 22.625 139.4375 C22.41875 140.283125 22.2125 141.12875 22 142 C21.34 142.33 20.68 142.66 20 143 C19.59270772 145.32156597 19.25561323 147.6568787 19 150 C18.34 150 17.68 150 17 150 C16.87753906 150.56203125 16.75507813 151.1240625 16.62890625 151.703125 C15.9480131 154.18986519 15.00647675 156.40514776 13.9375 158.75 C13.39416016 159.94882812 13.39416016 159.94882812 12.83984375 161.171875 C12.56269531 161.77515625 12.28554688 162.3784375 12 163 C11.34 163 10.68 163 10 163 C9.67 164.65 9.34 166.3 9 168 C8.34 168 7.68 168 7 168 C7 168.99 7 169.98 7 171 C6.01 171 5.02 171 4 171 C3.505 172.98 3.505 172.98 3 175 C2.01 175 1.02 175 0 175 C-0.33 174.01 -0.66 173.02 -1 172 C-1.66 171.67 -2.32 171.34 -3 171 C-3 170.01 -3 169.02 -3 168 C-3.99 167.67 -4.98 167.34 -6 167 C-6 166.01 -6 165.02 -6 164 C-6.99 163.67 -7.98 163.34 -9 163 C-9 161.68 -9 160.36 -9 159 C-9.66 159 -10.32 159 -11 159 C-11 158.34 -11 157.68 -11 157 C-10.34 157 -9.68 157 -9 157 C-8.67 155.35 -8.34 153.7 -8 152 C-7.34 152 -6.68 152 -6 152 C-4.79371992 149.66785852 -3.8345262 147.50357861 -3 145 C-2.34 145 -1.68 145 -1 145 C-1 143.02 -1 141.04 -1 139 C-0.34 138.67 0.32 138.34 1 138 C1.33 137.01 1.66 136.02 2 135 C2.66 135 3.32 135 4 135 C4 132.36 4 129.72 4 127 C4.66 127 5.32 127 6 127 C6 125.35 6 123.7 6 122 C6.99 121.505 6.99 121.505 8 121 C8.46954261 117.95418731 8.46954261 117.95418731 8.625 114.4375 C8.69976562 113.23996094 8.77453125 112.04242188 8.8515625 110.80859375 C8.90054687 109.88175781 8.94953125 108.95492187 9 108 C9.66 108 10.32 108 11 108 C10.67 94.47 10.34 80.94 10 67 C9.67 67 9.34 67 9 67 C8.95101563 66.07316406 8.90203125 65.14632812 8.8515625 64.19140625 C8.77679688 62.99386719 8.70203125 61.79632813 8.625 60.5625 C8.55539062 59.36753906 8.48578125 58.17257812 8.4140625 56.94140625 C8.27742188 55.97074219 8.14078125 55.00007813 8 54 C7.34 53.67 6.68 53.34 6 53 C5.375 50.4375 5.375 50.4375 5 48 C4.67 48 4.34 48 4 48 C3.87625 46.14375 3.87625 46.14375 3.75 44.25 C3.26861005 40.15459294 1.95316743 38.85790396 -1 36 C-1.25 32.75 -1.25 32.75 -1 30 C-1.66 30 -2.32 30 -3 30 C-5.31663844 26.06171464 -7.43358249 22.30764815 -9 18 C-9.66 18 -10.32 18 -11 18 C-11 17.01 -11 16.02 -11 15 C-10.34 15 -9.68 15 -9 15 C-8.87625 14.21625 -8.7525 13.4325 -8.625 12.625 C-8 10 -8 10 -6 8 C-5.34 7.13375 -4.68 6.2675 -4 5.375 C-3.34 4.59125 -2.68 3.8075 -2 3 C-1.34 3 -0.68 3 0 3 C0 2.01 0 1.02 0 0 Z " fill="#020202" transform="translate(474,208)"/>
<path d="M0 0 C1.65 0 3.3 0 5 0 C5 0.99 5 1.98 5 3 C5.66 3 6.32 3 7 3 C7.33 3.99 7.66 4.98 8 6 C8.66 6.33 9.32 6.66 10 7 C10 8.32 10 9.64 10 11 C10.66 11 11.32 11 12 11 C12.12375 11.804375 12.2475 12.60875 12.375 13.4375 C12.58125 14.283125 12.7875 15.12875 13 16 C13.66 16.33 14.32 16.66 15 17 C15 18.32 15 19.64 15 21 C15.66 21 16.32 21 17 21 C17.1953125 23.05078125 17.390625 25.1015625 17.5859375 27.15234375 C17.72257812 27.76207031 17.85921875 28.37179687 18 29 C18.66 29.33 19.32 29.66 20 30 C20 32.64 20 35.28 20 38 C20.66 38 21.32 38 22 38 C22 53.51 22 69.02 22 85 C21.34 85 20.68 85 20 85 C20 87.64 20 90.28 20 93 C19.34 93 18.68 93 18 93 C17.67 95.97 17.34 98.94 17 102 C16.34 102 15.68 102 15 102 C15 103.32 15 104.64 15 106 C14.01 106 13.02 106 12 106 C12 107.98 12 109.96 12 112 C11.34 112 10.68 112 10 112 C10 113.32 10 114.64 10 116 C9.01 116 8.02 116 7 116 C6.855625 116.61875 6.71125 117.2375 6.5625 117.875 C6 120 6 120 5 122 C3.35 122 1.7 122 0 122 C0 121.01 0 120.02 0 119 C-0.99 119 -1.98 119 -3 119 C-3.45375 118.030625 -3.9075 117.06125 -4.375 116.0625 C-5.65786221 112.92920418 -5.65786221 112.92920418 -8 112 C-8.10807131 110.06372231 -8.1856225 108.12572244 -8.25 106.1875 C-8.29640625 105.10855469 -8.3428125 104.02960938 -8.390625 102.91796875 C-8 100 -8 100 -6.0234375 98.2734375 C-5.35570312 97.85320312 -4.68796875 97.43296875 -4 97 C-3.34444881 94.47266765 -3.34444881 94.47266765 -3 92 C-2.01 91.01 -2.01 91.01 -1 90 C-0.35232207 87.42938689 -0.35232207 87.42938689 0 85 C0.66 85 1.32 85 2 85 C2 82.03 2 79.06 2 76 C2.66 76 3.32 76 4 76 C3.67 66.43 3.34 56.86 3 47 C2.67 47 2.34 47 2 47 C1.95101563 46.40832031 1.90203125 45.81664062 1.8515625 45.20703125 C1.4324304 40.77723858 0.85944074 37.09076963 -1 33 C-1 32.34 -1 31.68 -1 31 C-1.66 30.67 -2.32 30.34 -3 30 C-3.4640625 28.824375 -3.4640625 28.824375 -3.9375 27.625 C-4.76114372 24.98876716 -4.76114372 24.98876716 -6.5546875 23.72265625 C-8.7038721 21.16106055 -8.29322696 19.09003574 -8.1875 15.8125 C-8.16042969 14.72582031 -8.13335937 13.63914063 -8.10546875 12.51953125 C-8.07066406 11.68808594 -8.03585937 10.85664063 -8 10 C-7.34 10 -6.68 10 -6 10 C-5.67 9.01 -5.34 8.02 -5 7 C-4.34 7 -3.68 7 -3 7 C-3 6.01 -3 5.02 -3 4 C-2.34 3.67 -1.68 3.34 -1 3 C-0.67 2.01 -0.34 1.02 0 0 Z " fill="#030303" transform="translate(454,234)"/>
<path d="M0 0 C1.28519531 0.00064453 2.57039063 0.00128906 3.89453125 0.00195312 C4.56307129 0.01025146 5.23161133 0.0185498 5.92041016 0.02709961 C7.96166452 0.05069933 10.00161255 0.04765778 12.04296875 0.04101562 C22.0683095 0.09632091 22.0683095 0.09632091 25.46875 2.36328125 C27.78983669 3.07140939 30.12252147 3.74352277 32.46875 4.36328125 C32.46875 5.02328125 32.46875 5.68328125 32.46875 6.36328125 C35.43875 6.85828125 35.43875 6.85828125 38.46875 7.36328125 C38.46875 8.02328125 38.46875 8.68328125 38.46875 9.36328125 C39.45875 9.69328125 40.44875 10.02328125 41.46875 10.36328125 C41.96375 11.84828125 41.96375 11.84828125 42.46875 13.36328125 C43.45875 13.69328125 44.44875 14.02328125 45.46875 14.36328125 C47.15625 15.73828125 47.15625 15.73828125 48.46875 17.36328125 C48.46875 18.35328125 48.46875 19.34328125 48.46875 20.36328125 C49.45875 20.36328125 50.44875 20.36328125 51.46875 20.36328125 C53.56225689 23.76522995 53.64817163 26.41600537 53.46875 30.36328125 C52.80875 30.36328125 52.14875 30.36328125 51.46875 30.36328125 C51.46875 31.68328125 51.46875 33.00328125 51.46875 34.36328125 C50.47875 34.36328125 49.48875 34.36328125 48.46875 34.36328125 C48.46875 35.35328125 48.46875 36.34328125 48.46875 37.36328125 C47.80875 37.36328125 47.14875 37.36328125 46.46875 37.36328125 C46.13875 38.68328125 45.80875 40.00328125 45.46875 41.36328125 C42.21875 41.73828125 42.21875 41.73828125 38.46875 41.36328125 C36.21875 38.42578125 36.21875 38.42578125 34.46875 35.36328125 C32.98375 34.86828125 32.98375 34.86828125 31.46875 34.36328125 C31.46875 33.37328125 31.46875 32.38328125 31.46875 31.36328125 C30.705625 31.42515625 29.9425 31.48703125 29.15625 31.55078125 C25.93858093 31.32629271 25.56912469 30.64629722 23.46875 28.36328125 C22.14014075 28.01159057 20.80716672 27.67557849 19.46875 27.36328125 C18.97375 26.37328125 18.97375 26.37328125 18.46875 25.36328125 C11.86875 25.36328125 5.26875 25.36328125 -1.53125 25.36328125 C-1.86125 26.02328125 -2.19125 26.68328125 -2.53125 27.36328125 C-4.85281597 27.77057353 -7.1881287 28.10766802 -9.53125 28.36328125 C-9.53125 29.35328125 -9.53125 30.34328125 -9.53125 31.36328125 C-11.18125 31.69328125 -12.83125 32.02328125 -14.53125 32.36328125 C-14.53125 33.02328125 -14.53125 33.68328125 -14.53125 34.36328125 C-15.15 34.42515625 -15.76875 34.48703125 -16.40625 34.55078125 C-18.80242929 35.18068571 -18.80242929 35.18068571 -19.65625 37.86328125 C-19.945 38.68828125 -20.23375 39.51328125 -20.53125 40.36328125 C-23.37208641 41.78369946 -25.38602278 41.67780397 -28.53125 41.36328125 C-30.90625 39.55078125 -30.90625 39.55078125 -32.53125 37.36328125 C-32.53125 36.37328125 -32.53125 35.38328125 -32.53125 34.36328125 C-33.19125 34.36328125 -33.85125 34.36328125 -34.53125 34.36328125 C-35.02625 32.87828125 -35.02625 32.87828125 -35.53125 31.36328125 C-36.19125 31.03328125 -36.85125 30.70328125 -37.53125 30.36328125 C-37.53125 28.38328125 -37.53125 26.40328125 -37.53125 24.36328125 C-36.87125 24.36328125 -36.21125 24.36328125 -35.53125 24.36328125 C-35.20125 23.04328125 -34.87125 21.72328125 -34.53125 20.36328125 C-33.87125 20.36328125 -33.21125 20.36328125 -32.53125 20.36328125 C-32.53125 19.37328125 -32.53125 18.38328125 -32.53125 17.36328125 C-31.54125 17.36328125 -30.55125 17.36328125 -29.53125 17.36328125 C-29.53125 16.37328125 -29.53125 15.38328125 -29.53125 14.36328125 C-28.891875 14.26015625 -28.2525 14.15703125 -27.59375 14.05078125 C-26.913125 13.82390625 -26.2325 13.59703125 -25.53125 13.36328125 C-25.20125 12.37328125 -24.87125 11.38328125 -24.53125 10.36328125 C-23.54125 10.36328125 -22.55125 10.36328125 -21.53125 10.36328125 C-21.53125 9.37328125 -21.53125 8.38328125 -21.53125 7.36328125 C-19.55125 7.36328125 -17.57125 7.36328125 -15.53125 7.36328125 C-15.53125 6.37328125 -15.53125 5.38328125 -15.53125 4.36328125 C-14.1390625 4.20859375 -14.1390625 4.20859375 -12.71875 4.05078125 C-9.55809414 3.70744717 -9.55809414 3.70744717 -8.24023438 1.84301758 C-5.63187418 -0.41544973 -3.3940649 -0.00857321 0 0 Z " fill="#020202" transform="translate(302.53125,72.63671875)"/>
<path d="M0 0 C0.33 0.99 0.66 1.98 1 3 C1.66 3.33 2.32 3.66 3 4 C3 4.99 3 5.98 3 7 C3.66 7 4.32 7 5 7 C5.33 8.32 5.66 9.64 6 11 C6.66 11 7.32 11 8 11 C8.10841951 12.91541138 8.18578079 14.83259773 8.25 16.75 C8.29640625 17.81734375 8.3428125 18.8846875 8.390625 19.984375 C7.91088801 23.68794457 6.74369595 24.59141195 4 27 C3.67 27.99 3.34 28.98 3 30 C2.34 30 1.68 30 1 30 C1.04125 31.27875 1.0825 32.5575 1.125 33.875 C1.1953125 36.0546875 1.1953125 36.0546875 1 38 C0.34 38.66 -0.32 39.32 -1 40 C-1.40047444 42.32275177 -1.7397104 44.65739357 -2 47 C-2.66 47 -3.32 47 -4 47 C-4 56.57 -4 66.14 -4 76 C-3.34 76 -2.68 76 -2 76 C-1.67 78.97 -1.34 81.94 -1 85 C-0.34 85 0.32 85 1 85 C1 87.31 1 89.62 1 92 C1.66 92 2.32 92 3 92 C3.33 93.98 3.66 95.96 4 98 C4.66 98 5.32 98 6 98 C6 98.66 6 99.32 6 100 C6.66 100 7.32 100 8 100 C8 103.96 8 107.92 8 112 C7.34 112 6.68 112 6 112 C6 113.32 6 114.64 6 116 C5.01 116 4.02 116 3 116 C3 116.99 3 117.98 3 119 C1.8125 120.6875 1.8125 120.6875 0 122 C-2.6875 122.1875 -2.6875 122.1875 -5 122 C-5 121.34 -5 120.68 -5 120 C-5.66 119.67 -6.32 119.34 -7 119 C-7 118.01 -7 117.02 -7 116 C-7.66 116 -8.32 116 -9 116 C-9.33 115.01 -9.66 114.02 -10 113 C-10.66 112.67 -11.32 112.34 -12 112 C-12 110.02 -12 108.04 -12 106 C-12.99 105.67 -13.98 105.34 -15 105 C-15 104.01 -15 103.02 -15 102 C-15.66 102 -16.32 102 -17 102 C-17 99.03 -17 96.06 -17 93 C-17.66 93 -18.32 93 -19 93 C-19.185625 91.2984375 -19.185625 91.2984375 -19.375 89.5625 C-19.684375 87.7990625 -19.684375 87.7990625 -20 86 C-20.66 85.67 -21.32 85.34 -22 85 C-22 69.49 -22 53.98 -22 38 C-21.01 37.505 -21.01 37.505 -20 37 C-19.59270772 34.67843403 -19.25561323 32.3431213 -19 30 C-18.34 30 -17.68 30 -17 30 C-17 27.03 -17 24.06 -17 21 C-16.34 20.67 -15.68 20.34 -15 20 C-14.67 19.01 -14.34 18.02 -14 17 C-13.34 17 -12.68 17 -12 17 C-12 15.02 -12 13.04 -12 11 C-11.34 10.67 -10.68 10.34 -10 10 C-9.67 9.01 -9.34 8.02 -9 7 C-8.34 7 -7.68 7 -7 7 C-7 5.68 -7 4.36 -7 3 C-4.73338012 -0.17326783 -4.14853831 0 0 0 Z " fill="#020202" transform="translate(167,234)"/>
<path d="M0 0 C0 1.65 0 3.3 0 5 C0.66 5 1.32 5 2 5 C2.33 6.32 2.66 7.64 3 9 C3.66 9 4.32 9 5 9 C5 12.63 5 16.26 5 20 C5.66 20 6.32 20 7 20 C7 27.59 7 35.18 7 43 C6.34 43 5.68 43 5 43 C5 46.63 5 50.26 5 54 C4.34 54 3.68 54 3 54 C2.67 55.32 2.34 56.64 2 58 C1.34 58 0.68 58 0 58 C-0.495 60.475 -0.495 60.475 -1 63 C-2.27875 63.061875 -3.5575 63.12375 -4.875 63.1875 C-5.95394531 63.23970703 -5.95394531 63.23970703 -7.0546875 63.29296875 C-7.69664062 63.19628906 -8.33859375 63.09960938 -9 63 C-11 60 -11 60 -11 57 C-12.32 56.67 -13.64 56.34 -15 56 C-15.3690205 43.33029613 -15.3690205 43.33029613 -13 38 C-12.67 38 -12.34 38 -12 38 C-12 33.71 -12 29.42 -12 25 C-12.33 25 -12.66 25 -13 25 C-13 23.02 -13 21.04 -13 19 C-13.66 19 -14.32 19 -15 19 C-15.76173392 14.6835078 -16.16063604 11.25566547 -15 7 C-13.68 6.67 -12.36 6.34 -11 6 C-10.67 4.02 -10.34 2.04 -10 0 C-6.30581799 -1.231394 -3.7943739 -0.64432764 0 0 Z " fill="#020202" transform="translate(442,264)"/>
<path d="M0 0 C1.125 2.4375 1.125 2.4375 2 5 C3.32 5.66 4.64 6.32 6 7 C6 10.96 6 14.92 6 19 C5.34 19.33 4.68 19.66 4 20 C3.34786708 22.02463255 3.34786708 22.02463255 3 24 C2.34 24 1.68 24 1 24 C1 28.95 1 33.9 1 39 C1.66 39 2.32 39 3 39 C3.66 40.32 4.32 41.64 5 43 C5.33 43 5.66 43 6 43 C6 46.96 6 50.92 6 55 C4.35 55.66 2.7 56.32 1 57 C0.10169161 60.05272465 0.10169161 60.05272465 0 63 C-2.97 63 -5.94 63 -9 63 C-9.33 61.35 -9.66 59.7 -10 58 C-10.66 58 -11.32 58 -12 58 C-12 56.68 -12 55.36 -12 54 C-12.66 54 -13.32 54 -14 54 C-14.99 48.555 -14.99 48.555 -16 43 C-16.33 43 -16.66 43 -17 43 C-17.05785647 39.04172765 -17.09354717 35.0835633 -17.125 31.125 C-17.14175781 29.99707031 -17.15851563 28.86914062 -17.17578125 27.70703125 C-17.18222656 26.63066406 -17.18867188 25.55429687 -17.1953125 24.4453125 C-17.20578613 23.45031738 -17.21625977 22.45532227 -17.22705078 21.43017578 C-17 19 -17 19 -15 17 C-14.54188325 15.02764667 -14.54188325 15.02764667 -14.375 12.875 C-14.25125 11.59625 -14.1275 10.3175 -14 9 C-13.34 9 -12.68 9 -12 9 C-12 7.68 -12 6.36 -12 5 C-11.34 5 -10.68 5 -10 5 C-9.67 3.35 -9.34 1.7 -9 0 C-5.4268387 -1.19105377 -3.59356359 -1.0704232 0 0 Z " fill="#030303" transform="translate(189,264)"/>
<path d="M0 0 C0.495 0.99 0.495 0.99 1 2 C2.0725 2.0825 3.145 2.165 4.25 2.25 C9.27496307 3.25499261 10.04966523 4.95382661 13 9 C13.66 9.33 14.32 9.66 15 10 C15 14.29 15 18.58 15 23 C13.68 23.33 12.36 23.66 11 24 C9.6954344 26.99615946 9.6954344 26.99615946 9 30 C6.36 30 3.72 30 1 30 C0.505 28.515 0.505 28.515 0 27 C-0.99 26.67 -1.98 26.34 -3 26 C-3.33 25.34 -3.66 24.68 -4 24 C-7.3 24 -10.6 24 -14 24 C-14 24.66 -14 25.32 -14 26 C-14.9793879 27.02019573 -15.97895449 28.02149805 -17 29 C-17 29.33 -17 29.66 -17 30 C-18.47906892 30.02689216 -19.95827483 30.04634621 -21.4375 30.0625 C-22.67306641 30.07990234 -22.67306641 30.07990234 -23.93359375 30.09765625 C-26 30 -26 30 -27 29 C-27.04063832 27.33382885 -27.042721 25.66611905 -27 24 C-29.475 23.01 -29.475 23.01 -32 22 C-32 18.04 -32 14.08 -32 10 C-30.68 9.67 -29.36 9.34 -28 9 C-28 8.01 -28 7.02 -28 6 C-27.01 6 -26.02 6 -25 6 C-25 5.01 -25 4.02 -25 3 C-22.36 3 -19.72 3 -17 3 C-17 2.01 -17 1.02 -17 0 C-11.37743364 -1.36304639 -5.59483586 -1.64553996 0 0 Z " fill="#020202" transform="translate(319,110)"/>
<path d="M0 0 C5.94 0 11.88 0 18 0 C18.02682792 3.81254623 18.04675477 7.62490612 18.0625 11.4375 C18.07087891 12.52611328 18.07925781 13.61472656 18.08789062 14.73632812 C18.09272461 16.28803711 18.09272461 16.28803711 18.09765625 17.87109375 C18.10551147 19.30859985 18.10551147 19.30859985 18.11352539 20.77514648 C18 23 18 23 17 24 C14.3226862 24.09981214 11.67695825 24.13879875 9 24.125 C7.87464844 24.13080078 7.87464844 24.13080078 6.7265625 24.13671875 C1.12661053 24.12661053 1.12661053 24.12661053 0 23 C-0.08713831 21.29227642 -0.10700007 19.58101351 -0.09765625 17.87109375 C-0.09443359 16.83662109 -0.09121094 15.80214844 -0.08789062 14.73632812 C-0.07951172 13.64771484 -0.07113281 12.55910156 -0.0625 11.4375 C-0.05798828 10.34501953 -0.05347656 9.25253906 -0.04882812 8.12695312 C-0.0369984 5.41794568 -0.01906231 2.7089662 0 0 Z " fill="#020202" transform="translate(353,533)"/>
<path d="M0 0 C5.61 0 11.22 0 17 0 C18.18807993 2.37615986 18.12914522 3.8511742 18.1328125 6.5 C18.13474609 7.8303125 18.13474609 7.8303125 18.13671875 9.1875 C18.13285156 10.115625 18.12898438 11.04375 18.125 12 C18.13080078 13.3921875 18.13080078 13.3921875 18.13671875 14.8125 C18.13542969 15.699375 18.13414062 16.58625 18.1328125 17.5 C18.13168457 18.3146875 18.13055664 19.129375 18.12939453 19.96875 C18 22 18 22 17 24 C14.35409986 24.02684679 11.70846904 24.04676357 9.0625 24.0625 C8.30775391 24.07087891 7.55300781 24.07925781 6.77539062 24.08789062 C4.85005687 24.09652441 2.92464419 24.05224333 1 24 C0 23 0 23 -0.11352539 20.77514648 C-0.10828857 19.81680908 -0.10305176 18.85847168 -0.09765625 17.87109375 C-0.09443359 16.83662109 -0.09121094 15.80214844 -0.08789062 14.73632812 C-0.07951172 13.64771484 -0.07113281 12.55910156 -0.0625 11.4375 C-0.05798828 10.34501953 -0.05347656 9.25253906 -0.04882812 8.12695312 C-0.0369984 5.41794568 -0.01906231 2.7089662 0 0 Z " fill="#020202" transform="translate(302,533)"/>
<path d="M0 0 C5.61 0 11.22 0 17 0 C17.02682792 3.81254623 17.04675477 7.62490612 17.0625 11.4375 C17.07087891 12.52611328 17.07925781 13.61472656 17.08789062 14.73632812 C17.09272461 16.28803711 17.09272461 16.28803711 17.09765625 17.87109375 C17.10551147 19.30859985 17.10551147 19.30859985 17.11352539 20.77514648 C17 23 17 23 16 24 C13.30345146 24.07319621 10.63308542 24.09242537 7.9375 24.0625 C7.17888672 24.05798828 6.42027344 24.05347656 5.63867188 24.04882812 C3.75908129 24.0370068 1.87953101 24.01907078 0 24 C-1.18807993 21.62384014 -1.12914522 20.1488258 -1.1328125 17.5 C-1.13410156 16.613125 -1.13539063 15.72625 -1.13671875 14.8125 C-1.13285156 13.884375 -1.12898437 12.95625 -1.125 12 C-1.12886719 11.071875 -1.13273438 10.14375 -1.13671875 9.1875 C-1.13542969 8.300625 -1.13414062 7.41375 -1.1328125 6.5 C-1.13168457 5.6853125 -1.13055664 4.870625 -1.12939453 4.03125 C-1 2 -1 2 0 0 Z " fill="#010101" transform="translate(251,533)"/>
<path d="M0 0 C0.69416016 -0.01224609 1.38832031 -0.02449219 2.10351562 -0.03710938 C3.92470901 -0.04239842 5.7453692 0.06580793 7.5625 0.1875 C9.5625 2.1875 9.5625 2.1875 9.78955078 4.34228516 C9.77907715 5.21159668 9.76860352 6.0809082 9.7578125 6.9765625 C9.75136719 7.91757812 9.74492187 8.85859375 9.73828125 9.828125 C9.72152344 10.81296875 9.70476562 11.7978125 9.6875 12.8125 C9.67847656 13.80507813 9.66945312 14.79765625 9.66015625 15.8203125 C9.63654116 18.27628134 9.60360799 20.73177168 9.5625 23.1875 C6.02865441 24.36544853 3.15972447 24.32014317 -0.5625 24.3125 C-2.45355469 24.31636719 -2.45355469 24.31636719 -4.3828125 24.3203125 C-7.4375 24.1875 -7.4375 24.1875 -8.4375 23.1875 C-8.5366657 21.56492456 -8.56829777 19.93810169 -8.5703125 18.3125 C-8.57160156 17.32765625 -8.57289063 16.3428125 -8.57421875 15.328125 C-8.57035156 14.29171875 -8.56648437 13.2553125 -8.5625 12.1875 C-8.56830078 10.63289062 -8.56830078 10.63289062 -8.57421875 9.046875 C-8.57292969 8.06203125 -8.57164062 7.0771875 -8.5703125 6.0625 C-8.56918457 5.15242187 -8.56805664 4.24234375 -8.56689453 3.3046875 C-8.27585768 -1.45733431 -3.73842845 0.00345192 0 0 Z " fill="#020202" transform="translate(214.4375,532.8125)"/>
<path d="M0 0 C2.7885289 -0.22107787 5.34653181 -0.28107535 8.125 -0.1875 C8.87910156 -0.17396484 9.63320313 -0.16042969 10.41015625 -0.14648438 C12.27374127 -0.11109985 14.13695978 -0.05729167 16 0 C16.02887236 3.81248426 16.04675492 7.6249407 16.0625 11.4375 C16.07087891 12.52611328 16.07925781 13.61472656 16.08789062 14.73632812 C16.09272461 16.28803711 16.09272461 16.28803711 16.09765625 17.87109375 C16.10551147 19.30859985 16.10551147 19.30859985 16.11352539 20.77514648 C16 23 16 23 15 24 C12.7109392 24.12586907 10.41748882 24.17577971 8.125 24.1875 C6.86945313 24.20167969 5.61390625 24.21585938 4.3203125 24.23046875 C1 24 1 24 -2 22 C-2.37231445 20.07641602 -2.37231445 20.07641602 -2.36328125 17.75390625 C-2.36231445 16.49803711 -2.36231445 16.49803711 -2.36132812 15.21679688 C-2.34521484 14.34087891 -2.32910156 13.46496094 -2.3125 12.5625 C-2.31572266 11.69044922 -2.31894531 10.81839844 -2.32226562 9.91992188 C-2.26714553 3.4007183 -2.26714553 3.4007183 0 0 Z " fill="#010101" transform="translate(399,533)"/>
<path d="M0 0 C3.96 0 7.92 0 12 0 C12 0.33 12 0.66 12 1 C8.04 1 4.08 1 0 1 C0 0.67 0 0.34 0 0 Z " fill="#000000" transform="translate(305,343)"/>
<path d="" fill="#000000" transform="translate(0,0)"/>
</svg>
